<svg width="22" height="22" viewBox="0 0 22 22" fill="none" xmlns="http://www.w3.org/2000/svg">
<path d="M11 0C13.9174 0 16.7153 1.15893 18.7782 3.22183C20.8411 5.28473 22 8.08262 22 11C22 13.9174 20.8411 16.7153 18.7782 18.7782C16.7153 20.8411 13.9174 22 11 22C8.08262 22 5.28473 20.8411 3.22183 18.7782C1.15893 16.7153 0 13.9174 0 11C0 8.08262 1.15893 5.28473 3.22183 3.22183C5.28473 1.15893 8.08262 0 11 0ZM6.1875 10.3125C6.00516 10.3125 5.8303 10.3849 5.70136 10.5139C5.57243 10.6428 5.5 10.8177 5.5 11C5.5 11.1823 5.57243 11.3572 5.70136 11.4861C5.8303 11.6151 6.00516 11.6875 6.1875 11.6875H14.1529L11.2008 14.6383C11.1368 14.7022 11.0861 14.7781 11.0515 14.8616C11.0169 14.9451 10.9991 15.0346 10.9991 15.125C10.9991 15.2154 11.0169 15.3049 11.0515 15.3884C11.0861 15.4719 11.1368 15.5478 11.2008 15.6117C11.2647 15.6757 11.3406 15.7264 11.4241 15.761C11.5076 15.7956 11.5971 15.8134 11.6875 15.8134C11.7779 15.8134 11.8674 15.7956 11.9509 15.761C12.0344 15.7264 12.1103 15.6757 12.1742 15.6117L16.2992 11.4867C16.3633 11.4229 16.4141 11.347 16.4487 11.2635C16.4834 11.18 16.5012 11.0904 16.5012 11C16.5012 10.9096 16.4834 10.82 16.4487 10.7365C16.4141 10.653 16.3633 10.5771 16.2992 10.5133L12.1742 6.38825C12.1103 6.32433 12.0344 6.27362 11.9509 6.23903C11.8674 6.20444 11.7779 6.18663 11.6875 6.18663C11.5971 6.18663 11.5076 6.20444 11.4241 6.23903C11.3406 6.27362 11.2647 6.32433 11.2008 6.38825C11.1368 6.45217 11.0861 6.52806 11.0515 6.61157C11.0169 6.69509 10.9991 6.7846 10.9991 6.875C10.9991 6.9654 11.0169 7.05491 11.0515 7.13843C11.0861 7.22194 11.1368 7.29783 11.2008 7.36175L14.1529 10.3125H6.1875Z" fill="#F7F800"/>
</svg>
