<svg width="30" height="30" viewBox="0 0 30 30" fill="none" xmlns="http://www.w3.org/2000/svg">
<path d="M30 15C30 18.9782 28.4196 22.7936 25.6066 25.6066C22.7936 28.4196 18.9782 30 15 30C11.0218 30 7.20644 28.4196 4.3934 25.6066C1.58035 22.7936 0 18.9782 0 15C0 11.0218 1.58035 7.20644 4.3934 4.3934C7.20644 1.58035 11.0218 0 15 0C18.9782 0 22.7936 1.58035 25.6066 4.3934C28.4196 7.20644 30 11.0218 30 15ZM10.0388 8.71125C9.86271 8.53521 9.62395 8.43632 9.375 8.43632C9.12605 8.43632 8.88729 8.53521 8.71125 8.71125C8.53521 8.88729 8.43632 9.12605 8.43632 9.375C8.43632 9.62395 8.53521 9.86271 8.71125 10.0388L13.6744 15L8.71125 19.9613C8.62409 20.0484 8.55494 20.1519 8.50777 20.2658C8.4606 20.3797 8.43632 20.5017 8.43632 20.625C8.43632 20.7483 8.4606 20.8703 8.50777 20.9842C8.55494 21.0981 8.62409 21.2016 8.71125 21.2888C8.88729 21.4648 9.12605 21.5637 9.375 21.5637C9.49827 21.5637 9.62033 21.5394 9.73422 21.4922C9.84811 21.4451 9.95159 21.3759 10.0388 21.2888L15 16.3256L19.9613 21.2888C20.0484 21.3759 20.1519 21.4451 20.2658 21.4922C20.3797 21.5394 20.5017 21.5637 20.625 21.5637C20.7483 21.5637 20.8703 21.5394 20.9842 21.4922C21.0981 21.4451 21.2016 21.3759 21.2888 21.2888C21.3759 21.2016 21.4451 21.0981 21.4922 20.9842C21.5394 20.8703 21.5637 20.7483 21.5637 20.625C21.5637 20.5017 21.5394 20.3797 21.4922 20.2658C21.4451 20.1519 21.3759 20.0484 21.2888 19.9613L16.3256 15L21.2888 10.0388C21.3759 9.95159 21.4451 9.84811 21.4922 9.73422C21.5394 9.62033 21.5637 9.49827 21.5637 9.375C21.5637 9.25173 21.5394 9.12967 21.4922 9.01578C21.4451 8.90189 21.3759 8.79842 21.2888 8.71125C21.2016 8.62409 21.0981 8.55494 20.9842 8.50777C20.8703 8.4606 20.7483 8.43632 20.625 8.43632C20.5017 8.43632 20.3797 8.4606 20.2658 8.50777C20.1519 8.55494 20.0484 8.62409 19.9613 8.71125L15 13.6744L10.0388 8.71125Z" fill="#F7F800"/>
</svg>
