<svg width="81" height="51" viewBox="0 0 101.25 63.75" fill="none" xmlns="http://www.w3.org/2000/svg">
<rect width="81" height="51" rx="10" fill="#F7F800"/>
<path d="M35.5726 5C27.7915 5 21.5022 11.8503 21.5022 20.2815V20.498C22.2874 20.4849 22.8416 20.3766 23.3022 20.2176C23.7325 20.0683 24.101 19.8699 24.5404 19.6173C24.6963 16.5544 25.9264 13.6726 27.9779 11.5641C30.0294 9.45552 32.7466 8.28035 35.5711 8.28H45.4224C51.313 8.28 56.139 13.305 56.4697 19.6222C56.9046 19.8732 57.27 20.07 57.6959 20.2176C58.1579 20.3783 58.7151 20.4865 59.5079 20.498V20.2782C59.4928 11.8486 53.19 5 45.4239 5H35.5726ZM57.0012 26.4135C56.652 26.3277 56.3064 26.2254 55.9654 26.1068C55.0775 25.7985 54.244 25.3442 53.4678 24.9211C53.2407 24.7961 53.0127 24.6731 52.7838 24.5521C52.0997 24.1946 51.39 23.9404 50.0854 23.9404C49.1069 23.9404 48.2643 24.1601 47.4066 24.5652C47.0981 24.7171 46.7949 24.8812 46.4976 25.0572L46.4779 25.067C46.1578 25.2507 45.803 25.4541 45.4119 25.646C44.603 26.0489 43.7507 26.3398 42.875 26.5119H57.0012V26.4135ZM23.2161 29.6L34.0611 32.2404C38.2846 33.2703 42.6802 33.2703 46.9053 32.2404L57.7502 29.6H58.1202C59.5894 29.6 60.876 31.0137 60.876 32.88C60.876 34.7463 59.5894 36.16 58.1202 36.16H22.8613C21.392 36.16 20.1055 34.7463 20.1055 32.88C20.1055 31.0137 21.392 29.6 22.8613 29.6H23.2161ZM38.1381 26.5119H23.9787V26.4545C25.5098 26.1101 26.5729 25.4984 27.4834 24.9686L27.5136 24.9522C28.0542 24.6374 28.4725 24.3963 28.9723 24.2224C29.4615 24.0535 30.0595 23.9404 30.9263 23.9404C31.7945 23.9404 32.3895 24.0535 32.8772 24.2224C33.3755 24.3946 33.7908 24.6341 34.3298 24.949L34.3631 24.967C35.3264 25.5295 36.459 26.1806 38.1381 26.5119Z" fill="#094EC7"/>
<path d="M45.3351 11.1861C45.3351 11.5219 45.2123 11.8439 44.9936 12.0813C44.775 12.3188 44.4785 12.4522 44.1693 12.4522C43.8602 12.4522 43.5637 12.3188 43.345 12.0813C43.1264 11.8439 43.0036 11.5219 43.0036 11.1861C43.0036 10.8503 43.1264 10.5283 43.345 10.2908C43.5637 10.0534 43.8602 9.92001 44.1693 9.92001C44.4785 9.92001 44.775 10.0534 44.9936 10.2908C45.2123 10.5283 45.3351 10.8503 45.3351 11.1861ZM36.8156 12.4505C36.9721 12.4567 37.1281 12.4285 37.2744 12.3676C37.4206 12.3068 37.5541 12.2146 37.6668 12.0965C37.7796 11.9784 37.8692 11.8368 37.9304 11.6803C37.9917 11.5237 38.0232 11.3554 38.0232 11.1853C38.0232 11.0152 37.9917 10.8468 37.9304 10.6903C37.8692 10.5337 37.7796 10.3921 37.6668 10.2741C37.5541 10.156 37.4206 10.0637 37.2744 10.0029C37.1281 9.94208 36.9721 9.91389 36.8156 9.92001C36.5138 9.93181 36.2281 10.0703 36.0185 10.3063C35.8089 10.5423 35.6918 10.8574 35.6918 11.1853C35.6918 11.5132 35.8089 11.8283 36.0185 12.0643C36.2281 12.3003 36.5138 12.4387 36.8156 12.4505ZM49.391 14.7351C49.391 15.0708 49.2682 15.3929 49.0496 15.6303C48.8309 15.8677 48.5344 16.0011 48.2253 16.0011C47.9161 16.0011 47.6196 15.8677 47.401 15.6303C47.1823 15.3929 47.0595 15.0708 47.0595 14.7351C47.0595 14.3993 47.1823 14.0772 47.401 13.8398C47.6196 13.6024 47.9161 13.469 48.2253 13.469C48.5344 13.469 48.8309 13.6024 49.0496 13.8398C49.2682 14.0772 49.391 14.3993 49.391 14.7351ZM32.7596 16.0011C32.9162 16.0073 33.0722 15.9791 33.2185 15.9182C33.3647 15.8574 33.4982 15.7652 33.6109 15.6471C33.7236 15.529 33.8133 15.3874 33.8745 15.2309C33.9358 15.0743 33.9673 14.906 33.9673 14.7359C33.9673 14.5658 33.9358 14.3974 33.8745 14.2409C33.8133 14.0843 33.7236 13.9427 33.6109 13.8247C33.4982 13.7066 33.3647 13.6143 33.2185 13.5535C33.0722 13.4927 32.9162 13.4645 32.7596 13.4706C32.4579 13.4824 32.1722 13.6209 31.9626 13.8569C31.753 14.0929 31.6359 14.408 31.6359 14.7359C31.6359 15.0638 31.753 15.3789 31.9626 15.6149C32.1722 15.8509 32.4579 15.9893 32.7596 16.0011ZM40.4924 17.4476C40.8016 17.4476 41.0981 17.3142 41.3167 17.0768C41.5354 16.8394 41.6582 16.5173 41.6582 16.1815C41.6582 15.8457 41.5354 15.5237 41.3167 15.2863C41.0981 15.0488 40.8016 14.9155 40.4924 14.9155C40.1833 14.9155 39.8868 15.0488 39.6682 15.2863C39.4495 15.5237 39.3267 15.8457 39.3267 16.1815C39.3267 16.5173 39.4495 16.8394 39.6682 17.0768C39.8868 17.3142 40.1833 17.4476 40.4924 17.4476ZM21.7154 39.7287V37.6196C22.0793 37.7361 22.4628 37.7984 22.863 37.7984H24.7354V39.727C24.7354 41.5261 25.9283 42.7184 27.1152 42.7184H53.8395C55.0279 42.7184 56.2359 41.5212 56.248 39.7024V37.8H58.1204C58.5205 37.8 58.9056 37.7377 59.268 37.6213V39.7205C59.2484 43.0529 56.9471 46 53.841 46H27.1137C24.0031 46 21.7139 43.048 21.7139 39.7287H21.7154ZM30.928 19.35C28.2115 19.35 26.78 20.1766 25.5055 20.9179L25.4527 20.9474C24.9332 21.2491 24.4047 21.5575 23.763 21.7789C23.1016 22.0085 22.3466 22.1397 21.35 22.1397C20.607 22.1397 20 22.7957 20 23.6157C20 24.4324 20.607 25.09 21.35 25.09C24.0665 25.09 25.498 24.2635 26.7724 23.5222L26.8253 23.4927C27.3447 23.1909 27.8732 22.8826 28.5165 22.6612C29.1764 22.4316 29.9314 22.3004 30.928 22.3004C31.9246 22.3004 32.6766 22.4316 33.338 22.6612C33.9782 22.8809 34.5052 23.1893 35.0232 23.491L35.0775 23.5222C36.352 24.2635 37.7835 25.09 40.5075 25.09C42.4796 25.09 43.7692 24.6554 44.79 24.1519C45.1403 23.9797 45.4619 23.7961 45.7896 23.6091L45.7971 23.6042C46.1203 23.4205 46.4585 23.227 46.8058 23.063C47.8371 22.5595 48.955 22.2996 50.0856 22.3004C51.6273 22.3004 52.562 22.6136 53.4424 23.0761C53.7127 23.2171 53.9709 23.3582 54.223 23.4959C54.9735 23.9059 55.6621 24.2799 56.4277 24.5455C57.469 24.9089 58.5563 25.0926 59.65 25.09C60.393 25.09 61 24.434 61 23.614C61 22.7973 60.393 22.138 59.65 22.138C58.6534 22.138 57.9014 22.0085 57.2401 21.7805C56.5998 21.5575 56.0728 21.2508 55.5564 20.949L55.5035 20.9179C54.8165 20.5177 54.1189 20.1143 53.2159 19.8141C52.3989 19.5435 51.3963 19.35 50.0871 19.35C48.7764 19.35 47.7738 19.5435 46.9568 19.8141C46.232 20.0552 45.5827 20.3898 44.8851 20.7489C44.6027 20.8933 44.3128 21.0441 44.0078 21.1917C42.981 21.6903 41.8484 22.1397 40.5075 22.1397C39.5064 22.1397 38.7499 22.0085 38.087 21.7789C37.4437 21.5558 36.9152 21.2491 36.3973 20.9474L36.3475 20.9179C35.0745 20.1766 33.6445 19.35 30.928 19.35ZM24.1722 28.1519H56.7976L46.5763 30.6398C42.5646 31.6159 38.4037 31.6159 34.392 30.6398L24.1722 28.1519Z" fill="#094EC7"/>
</svg>
