<svg width="81" height="51" viewBox="0 0 81 51" fill="none" xmlns="http://www.w3.org/2000/svg">
<rect width="81" height="51" rx="10" fill="#F7F800"/>
<path d="M36.25 42.4999H44.75V40.1624L47.4063 39.0999C49.7083 38.1791 51.6655 36.8949 53.2776 35.2473C54.8898 33.5997 56.0493 31.7673 56.7562 29.7499H24.2438C24.9521 31.7687 26.1031 33.6019 27.6969 35.2494C29.2906 36.897 31.2563 38.1805 33.5938 39.0999L36.25 40.1624V42.4999ZM32 46.7499V43.0312C28.2104 41.5437 25.1377 39.2416 22.7818 36.1249C20.4258 33.0083 19.2486 29.4666 19.25 25.4999H23.5V8.49994L61.75 4.24994V7.43744L37.3125 10.1999V13.8124H61.75V16.9999H37.3125V25.4999H61.75C61.75 29.4666 60.572 33.0083 58.2161 36.1249C55.8602 39.2416 52.7882 41.5437 49 43.0312V46.7499H32ZM32 13.8124H34.125V10.5187L32 10.7312V13.8124ZM26.6875 13.8124H28.8125V11.1562L26.6875 11.3687V13.8124ZM32 25.4999H34.125V16.9999H32V25.4999ZM26.6875 25.4999H28.8125V16.9999H26.6875V25.4999Z" fill="#094EC7"/>
</svg>
