<svg width="81" height="51" viewBox="0 0 81 51" fill="none" xmlns="http://www.w3.org/2000/svg">
<rect width="81" height="51" rx="10" fill="#F7F800"/>
<path d="M59.2145 28.5535L59.1933 28.4685C55.0784 18.6616 47.2695 10.868 37.4545 6.77229C37.0356 6.60069 36.5863 6.5159 36.1337 6.52306C35.6811 6.53023 35.2346 6.62919 34.8214 6.81396C34.4081 6.99873 34.0367 7.26546 33.7295 7.59799C33.4224 7.93052 33.186 8.32194 33.0345 8.74854L21.7295 39.9648C21.5454 40.4711 21.4858 41.0144 21.5558 41.5486C21.6258 42.0829 21.8234 42.5924 22.1318 43.0342C22.4403 43.476 22.8505 43.8371 23.3279 44.087C23.8052 44.3368 24.3357 44.4681 24.8745 44.4698C25.265 44.4702 25.6528 44.4056 26.022 44.2785L57.2595 32.9735C57.6871 32.8186 58.0789 32.5787 58.4112 32.2683C58.7436 31.9578 59.0096 31.5833 59.1933 31.1673C59.3754 30.7562 59.4712 30.3122 59.4748 29.8626C59.4785 29.413 59.3899 28.9675 59.2145 28.5535ZM44.382 34.886C44.5085 35.0171 44.6514 35.1314 44.807 35.226L25.2995 42.2874C25.0805 42.3621 24.8448 42.3738 24.6194 42.3212C24.394 42.2686 24.1879 42.1538 24.0245 41.9899C23.8506 41.8287 23.7291 41.6188 23.6761 41.3876C23.623 41.1564 23.6408 40.9146 23.727 40.6937L28.8058 26.6687C28.9004 26.8243 29.0147 26.9672 29.1458 27.0937C29.8672 27.815 30.8456 28.2203 31.8658 28.2203C32.886 28.2203 33.8644 27.815 34.5858 27.0937C35.3072 26.3723 35.7124 25.3939 35.7124 24.3737C35.7124 23.3535 35.3072 22.375 34.5858 21.6537C34.1221 21.188 33.5451 20.8511 32.9118 20.676C32.2784 20.5009 31.6103 20.4936 30.9733 20.6549L33.2895 14.3224C39.058 16.9556 44.0497 21.0323 47.782 26.1587C46.5014 26.2251 45.2906 26.7625 44.382 27.6674C43.9075 28.1411 43.5311 28.7037 43.2742 29.323C43.0174 29.9424 42.8852 30.6063 42.8852 31.2767C42.8852 31.9472 43.0174 32.6111 43.2742 33.2304C43.5311 33.8497 43.9075 34.4123 44.382 34.886ZM57.2383 30.3173C57.1011 30.6211 56.8488 30.858 56.537 30.976L53.732 31.9748C53.4983 31.486 53.2645 31.0185 53.0308 30.551C52.7758 30.041 52.4995 29.531 52.2233 29.0423C51.5645 27.8735 50.842 26.7473 50.0983 25.6848C46.0322 19.8619 40.4765 15.2383 34.012 12.2973L35.032 9.47104C35.0871 9.31479 35.1741 9.17174 35.2875 9.051C35.4009 8.93026 35.5383 8.83449 35.6908 8.76979C35.8416 8.69221 36.0101 8.65557 36.1795 8.66354C36.3612 8.67007 36.5406 8.70595 36.7108 8.76979C45.9992 12.6569 53.382 20.0473 57.2595 29.3398V29.3823C57.3192 29.5315 57.3481 29.6913 57.3444 29.852C57.3408 30.0126 57.3047 30.1709 57.2383 30.3173Z" fill="#094EC7"/>
<path d="M31.6496 37.3236C32.9112 37.3236 33.934 36.3008 33.934 35.0392C33.934 33.7776 32.9112 32.7548 31.6496 32.7548C30.388 32.7548 29.3652 33.7776 29.3652 35.0392C29.3652 36.3008 30.388 37.3236 31.6496 37.3236Z" fill="#094EC7"/>
</svg>
