<svg width="124" height="201" viewBox="0 0 124 201" fill="none" xmlns="http://www.w3.org/2000/svg">
<path d="M48.9296 188.886H73.1444V182.227L80.7115 179.2C87.2697 176.577 92.8451 172.918 97.4379 168.225C102.031 163.531 105.334 158.311 107.348 152.564H14.7262C16.7441 158.315 20.0232 163.537 24.5635 168.231C29.1037 172.924 34.7034 176.581 41.3625 179.2L48.9296 182.227V188.886ZM36.8222 200.993V190.399C26.0264 186.162 17.2728 179.604 10.5613 170.725C3.84972 161.846 0.495968 151.757 0.500004 140.456H12.6074L21.688 140.456L51.9564 140.456H121.574C121.574 151.757 118.218 161.846 111.507 170.725C104.795 179.604 96.0435 186.162 85.2518 190.399V200.993H36.8222ZM21.688 140.456L27.7416 140.456H24.7148L21.688 140.456Z" fill="black" fill-opacity="0.4"/>
<path d="M50.8554 188.772H75.0702V182.113L82.6373 179.086C89.1955 176.463 94.7709 172.805 99.3637 168.111C103.956 163.417 107.26 158.197 109.274 152.45H16.652C18.6699 158.201 21.949 163.423 26.4892 168.117C31.0295 172.811 36.6292 176.467 43.2883 179.086L50.8554 182.113V188.772ZM38.748 200.88V190.286C27.9522 186.048 19.1986 179.49 12.487 170.611C5.7755 161.732 2.42175 151.643 2.42578 140.343H14.5332L23.6137 140.343L53.8822 140.343H123.5C123.5 151.643 120.144 161.732 113.432 170.611C106.721 179.49 97.9693 186.048 87.1776 190.286V200.88H38.748ZM23.6137 140.343L29.6674 140.343H26.6406L23.6137 140.343Z" fill="#F7F800"/>
<mask id="mask0_289_2578" style="mask-type:alpha" maskUnits="userSpaceOnUse" x="0" y="0" width="124" height="141">
<rect x="0.5" y="0.493774" width="123" height="139.849" fill="#D9D9D9"/>
</mask>
<g mask="url(#mask0_289_2578)">
<path d="M92.0528 140.323H81.7026C107.712 62.601 108.662 22.0685 81.7026 -43.7694C55.4576 -114.513 53.508 -154.737 81.7026 -227.861C108.577 -292.742 113.266 -326.967 81.7026 -396.383C47.9784 -465.617 52.3745 -503.547 81.7026 -570.381C100.56 -613.354 104.22 -623.919 81.7026 -656.327H92.0528C114.125 -618.981 109.299 -611.036 92.0528 -570.381C57.7528 -494.821 61.6351 -457.585 92.0528 -396.383C123.969 -328.122 119.89 -294.427 92.0528 -227.861C65.2547 -149.686 67.8976 -110.002 92.0528 -43.7694C118.089 28.1278 117.176 68.4254 92.0528 140.323Z" fill="black" fill-opacity="0.4"/>
<path d="M35.9689 140.262H25.6186C51.6283 62.5408 52.5784 22.0083 25.6186 -43.8296C-0.626344 -114.573 -2.57603 -154.797 25.6186 -227.922C52.4931 -292.802 57.1817 -327.027 25.6186 -396.443C-8.10561 -465.677 -3.70951 -503.607 25.6186 -570.441C44.4759 -613.414 48.1365 -623.979 25.6186 -656.387H35.9689C58.0406 -619.041 53.2152 -611.097 35.9689 -570.441C1.66879 -494.881 5.55113 -457.645 35.9689 -396.443C67.8851 -328.183 63.8062 -294.487 35.9689 -227.922C9.17069 -149.747 11.8136 -110.062 35.9689 -43.8296C62.0049 28.0676 61.0922 68.3652 35.9689 140.262Z" fill="black" fill-opacity="0.4"/>
<path d="M94.4591 140.323H84.1088C110.119 62.601 111.069 22.0685 84.1088 -43.7694C57.8639 -114.513 55.9142 -154.737 84.1088 -227.861C110.983 -292.742 115.672 -326.967 84.1088 -396.383C50.3846 -465.617 54.7807 -503.547 84.1088 -570.381C102.966 -613.354 106.627 -623.919 84.1088 -656.327H94.4591C116.531 -618.981 111.705 -611.036 94.4591 -570.381C60.159 -494.821 64.0414 -457.585 94.4591 -396.383C126.375 -328.122 122.296 -294.427 94.4591 -227.861C67.6609 -149.686 70.3039 -110.002 94.4591 -43.7694C120.495 28.1278 119.582 68.4254 94.4591 140.323Z" fill="#F7F800"/>
<path d="M63.8907 140.323H53.5405C79.5502 62.601 80.5003 22.0685 53.5405 -43.7694C27.2955 -114.513 25.3458 -154.737 53.5405 -227.861C80.415 -292.742 85.1035 -326.967 53.5405 -396.383C19.8163 -465.617 24.2124 -503.547 53.5405 -570.381C72.3978 -613.354 76.0583 -623.919 53.5405 -656.327H63.8907C85.9625 -618.981 81.1371 -611.036 63.8907 -570.381C29.5907 -494.821 33.473 -457.585 63.8907 -396.383C95.807 -328.122 91.7281 -294.427 63.8907 -227.861C37.0926 -149.686 39.7355 -110.002 63.8907 -43.7694C89.9268 28.1278 89.0141 68.4254 63.8907 140.323Z" fill="black" fill-opacity="0.4"/>
<path d="M66.0567 140.323H55.7065C81.7162 62.601 82.6663 22.0685 55.7065 -43.7694C29.4615 -114.513 27.5119 -154.737 55.7065 -227.861C82.581 -292.742 87.2696 -326.967 55.7065 -396.383C21.9823 -465.617 26.3784 -503.547 55.7065 -570.381C74.5638 -613.354 78.2244 -623.919 55.7065 -656.327H66.0567C88.1285 -618.981 83.3031 -611.036 66.0567 -570.381C31.7567 -494.821 35.639 -457.585 66.0567 -396.383C97.973 -328.122 93.8941 -294.427 66.0567 -227.861C39.2586 -149.686 41.9015 -110.002 66.0567 -43.7694C92.0928 28.1278 91.1801 68.4254 66.0567 140.323Z" fill="#F7F800"/>
<path d="M38.3751 140.262H28.0248C54.0346 62.5408 54.9847 22.0083 28.0248 -43.8296C1.77991 -114.573 -0.169779 -154.797 28.0248 -227.922C54.8993 -292.802 59.5879 -327.027 28.0248 -396.443C-5.69936 -465.677 -1.30326 -503.607 28.0248 -570.441C46.8822 -613.414 50.5427 -623.979 28.0248 -656.387H38.3751C60.4468 -619.041 55.6215 -611.097 38.3751 -570.441C4.07504 -494.881 7.95738 -457.645 38.3751 -396.443C70.2914 -328.183 66.2124 -294.487 38.3751 -227.922C11.5769 -149.747 14.2199 -110.062 38.3751 -43.8296C64.4112 28.0676 63.4984 68.3652 38.3751 140.262Z" fill="#F7F800"/>
</g>
</svg>
