<svg width="91" height="91" viewBox="0 0 91 91" fill="none" xmlns="http://www.w3.org/2000/svg">
<path d="M37.9173 75.8333H53.084V71.6624L57.8236 69.7666C61.9312 68.1235 65.4233 65.8321 68.2999 62.8923C71.1766 59.9525 73.2455 56.6828 74.5069 53.0833H16.4944C17.7583 56.6853 19.8121 59.9563 22.6559 62.8961C25.4996 65.8359 29.0069 68.1261 33.1777 69.7666L37.9173 71.6624V75.8333ZM30.334 83.4166V76.7812C23.5722 74.127 18.0894 70.0194 13.8857 64.4583C9.68204 58.8971 7.58146 52.5777 7.58399 45.4999H15.1673V15.1666L83.4173 7.58325V13.2708L39.8132 18.1999V24.6458H83.4173V30.3333H39.8132V45.4999H83.4173C83.4173 52.5777 81.3155 58.8971 77.1118 64.4583C72.9081 70.0194 67.4266 74.127 60.6673 76.7812V83.4166H30.334ZM30.334 24.6458H34.1257V18.7687L30.334 19.1478V24.6458ZM20.8548 24.6458H24.6465V19.9062L20.8548 20.2853V24.6458ZM30.334 45.4999H34.1257V30.3333H30.334V45.4999ZM20.8548 45.4999H24.6465V30.3333H20.8548V45.4999Z" fill="#F7F800"/>
</svg>
