<svg width="332" height="26" viewBox="0 0 332 26" fill="none" xmlns="http://www.w3.org/2000/svg">
<path d="M-0.5 11.5151C39.5644 -1.15755 53.9901 6.23484 56.1949 11.5151C69.3627 19.767 77.8902 20.6354 96.3537 11.5151C107.437 2.30418 114.34 -2.07344 137.93 2.94545C151.631 5.86045 164.254 5.80185 168.927 14.6312C168.988 14.747 169.046 14.8632 169.101 14.9797C183.64 6.56329 205.788 -0.272213 210.027 9.43746C215.697 22.4218 239.895 11.201 254.782 11.5151C269.669 11.8292 271.033 22.4219 276.702 9.43758C282.372 -3.54672 331.503 1.35931 304.103 6.43726C276.702 11.5152 296.826 17.0427 309.583 20.4186C322.339 23.7945 326.338 13.2726 330.59 13.2726C334.842 13.2726 332.999 22.1622 342.92 11.5151C352.842 0.86803 369.434 9.43746 369.434 9.43746C369.434 9.43746 357.014 13.8773 369.434 20.4186C381.854 26.9598 377.972 18.6674 386.304 20.4186C398.897 21.0145 401.595 10.217 408.681 5.02286C415.768 -0.171265 427.074 16.1898 427.074 16.1898L436.995 27.8753H165.347C157.947 35.9747 144.954 40.1389 154.268 27.8753H-0.5V11.5151Z" fill="#AEC9F9" fill-opacity="0.7"/>
</svg>
