<svg width="81" height="51" viewBox="0 0 101.25 63.75" fill="none" xmlns="http://www.w3.org/2000/svg">
<rect width="81" height="51" rx="10" fill="#F7F800"/>
<path d="M26.424 4.46251C26.7903 4.25177 27.2254 4.19518 27.6335 4.30516C28.0415 4.41515 28.3892 4.68271 28.6 5.04901L39.1506 23.375H43.9744L34.3375 6.63851C34.1342 6.27263 34.0829 5.84144 34.1948 5.43809C34.3068 5.03475 34.5729 4.69163 34.9357 4.48287C35.2985 4.27411 35.7289 4.21647 36.1339 4.3224C36.5389 4.42833 36.8859 4.68933 37.1 5.04901L47.6506 23.375H60.2583C61.0828 23.375 61.75 24.0444 61.75 24.8668V25.5C61.7525 27.6622 61.4243 29.812 60.7768 31.875H20.2233C19.5763 29.8119 19.2481 27.6622 19.25 25.5V24.8668C19.25 24.0444 19.9173 23.375 20.7418 23.375H35.4744L25.8375 6.63851C25.6268 6.27217 25.5702 5.83712 25.6802 5.42906C25.7902 5.02099 26.0577 4.67332 26.424 4.46251ZM21.5174 35.0625C23.2886 38.5776 26.0014 41.5316 29.3531 43.5952C32.7049 45.6589 36.5639 46.7511 40.5 46.75C44.4361 46.7511 48.2952 45.6589 51.6469 43.5952C54.9987 41.5316 57.7114 38.5776 59.4826 35.0625H21.5174Z" fill="#094EC7"/>
</svg>
