<svg width="81" height="51" viewBox="0 0 101.25 63.75" fill="none" xmlns="http://www.w3.org/2000/svg">
<rect width="81" height="51" rx="10" fill="#F7F800"/>
<path d="M33.9536 9.12262C36.2351 7.7809 38.7612 6.90771 41.3842 6.55414C44.0072 6.20058 46.6744 6.37374 49.2297 7.06349L52.7997 8.03568C56.1147 8.94412 59.5413 8.3863 62.4419 6.53755C62.8085 6.31443 62.92 5.82037 62.665 5.43787C62.5507 5.26057 62.3707 5.13585 62.1646 5.09103C61.9584 5.04622 61.7429 5.08497 61.5653 5.1988C59.0472 6.80849 56.0828 7.28662 53.1981 6.50568L49.6281 5.53349C46.8214 4.76945 43.8883 4.58597 41.0082 4.99428C38.1281 5.40259 35.3616 6.3941 32.8778 7.90818L27.287 11.322C27.0925 11.4336 26.8997 11.5499 26.7084 11.6694L18.7078 16.371C18.15 16.6897 18.0225 17.4388 18.4209 17.9329L19.6322 19.4629C20.2537 20.2279 20.2697 21.3116 19.6959 22.1244L18.2934 24.0688C18.0225 24.4354 18.2934 24.9613 18.7556 24.9613H26.141L23.1384 29.2644C23.0527 29.3838 23.0018 29.5245 22.9912 29.6711C22.9807 29.8176 23.0109 29.9642 23.0786 30.0946C23.1462 30.225 23.2487 30.3341 23.3746 30.4098C23.5005 30.4855 23.645 30.5249 23.7919 30.5235C24.0309 30.5235 24.2859 30.4119 24.4453 30.1888L28.095 24.9613H30.9255L28.6369 28.2285C28.0631 29.0572 27.7603 30.0135 27.7603 31.0016V32.1172C27.7603 32.5635 28.1109 32.9141 28.5572 32.9141C29.0034 32.9141 29.354 32.5635 29.354 32.1172V31.0016C29.354 30.3482 29.5612 29.6947 29.9437 29.1529L32.8794 24.9613H35.7067L33.4181 28.2285C32.8444 29.0572 32.5416 30.0135 32.5416 31.0016V32.1172C32.5416 32.5635 32.8922 32.9141 33.3384 32.9141C33.7847 32.9141 34.1353 32.5635 34.1353 32.1172V31.0016C34.1353 30.3482 34.3425 29.6947 34.725 29.1529L37.6607 24.9613H40.488L38.1994 28.2285C37.6256 29.0572 37.3228 30.0135 37.3228 31.0016V32.1172C37.3228 32.5635 37.6734 32.9141 38.1197 32.9141C38.5659 32.9141 38.9165 32.5635 38.9165 32.1172V31.0016C38.9165 30.3482 39.1237 29.6947 39.5062 29.1529L42.4419 24.9613H44.4628C45.9705 24.9613 47.3411 25.5621 48.3468 26.5391H45.5147C44.3831 26.5391 43.379 27.2563 42.9965 28.3241C42.9553 28.4444 42.9431 28.5728 42.961 28.6987C42.9788 28.8247 43.0262 28.9446 43.0992 29.0487C43.1723 29.1529 43.2689 29.2382 43.3812 29.2979C43.4936 29.3575 43.6184 29.3898 43.7456 29.3919C44.0644 29.3919 44.3831 29.2007 44.4947 28.8501C44.5681 28.6387 44.7061 28.4558 44.8891 28.3271C45.0721 28.1984 45.291 28.1305 45.5147 28.1329H46.2287C46.1999 28.1953 46.1744 28.2591 46.1522 28.3241C46.1109 28.4444 46.0987 28.5728 46.1166 28.6987C46.1344 28.8247 46.1818 28.9446 46.2548 29.0487C46.3279 29.1529 46.4245 29.2382 46.5369 29.2979C46.6492 29.3575 46.7741 29.3898 46.9012 29.3919C47.2359 29.3919 47.5387 29.2007 47.6503 28.8501C47.7238 28.6387 47.8617 28.4558 48.0447 28.3271C48.2278 28.1984 48.4466 28.1305 48.6703 28.1329H49.4943C49.97 29.1233 50.1409 30.2327 49.9851 31.3204H45.5147C44.3831 31.3204 43.379 32.0376 42.9965 33.1054C42.9553 33.2257 42.9431 33.3541 42.961 33.48C42.9788 33.6059 43.0262 33.7259 43.0992 33.83C43.1723 33.9341 43.2689 34.0195 43.3812 34.0791C43.4936 34.1388 43.6184 34.171 43.7456 34.1732C44.0644 34.1732 44.3831 33.966 44.4947 33.6313C44.5681 33.42 44.7061 33.237 44.8891 33.1084C45.0721 32.9797 45.291 32.9117 45.5147 32.9141H46.2287C46.1999 32.9765 46.1744 33.0403 46.1522 33.1054C46.1109 33.2257 46.0987 33.3541 46.1166 33.48C46.1344 33.6059 46.1818 33.7259 46.2548 33.83C46.3279 33.9341 46.4245 34.0195 46.5369 34.0791C46.6492 34.1388 46.7741 34.171 46.9012 34.1732C47.2359 34.1732 47.5387 33.966 47.6503 33.6313C47.7238 33.42 47.8617 33.237 48.0447 33.1084C48.2278 32.9797 48.4466 32.9117 48.6703 32.9141H49.5086C49.1364 33.7006 48.5864 34.3897 47.9021 34.927C46.922 35.6991 45.7105 36.1185 44.4628 36.1176H40.2872C37.9905 36.1167 35.744 36.7897 33.8261 38.0532C31.9082 39.3167 30.4032 41.1151 29.4975 43.2257L28.1587 46.3654C28.1162 46.4628 28.0987 46.5693 28.1079 46.6752C28.117 46.7812 28.1525 46.8831 28.2111 46.9718C28.2697 47.0605 28.3496 47.1331 28.4434 47.1831C28.5373 47.2331 28.6421 47.2588 28.7484 47.2579H43.6819C44.356 47.2579 45.0206 47.2228 45.6788 47.1543C55.0628 46.1821 62.426 38.4301 62.7925 28.8771C62.9719 24.4726 61.6178 20.1422 58.9611 16.6244C56.1558 12.902 52.0887 10.331 47.5228 9.39355C46.2587 9.13649 44.9719 9.00727 43.6819 9.00787H35.9522C35.2828 9.00787 34.615 9.04612 33.9536 9.12262ZM40.0194 23.3676L45.5003 15.5263C46.608 13.9517 46.4327 12.036 45.4446 10.6893C48.3213 10.9761 50.994 11.9563 53.2906 13.4624C53.8574 14.6362 54.0949 15.9419 53.9775 17.2401C53.8602 18.5384 53.3925 19.7803 52.6244 20.8335L49.3715 25.3119C48.0435 24.061 46.2873 23.3653 44.4628 23.3676H40.0194ZM51.6203 30.0629L57.7403 22.0447C58.4145 21.1602 58.8002 20.3362 59.009 19.6111C60.46 22.2166 61.2194 25.1505 61.2147 28.1329C61.2169 30.1576 60.868 32.1673 60.1836 34.0728C58.7238 35.3811 56.8319 36.1037 54.8716 36.1016H48.9875C49.8776 35.3793 50.5814 34.4538 51.0396 33.403C51.4977 32.3522 51.6969 31.2067 51.6203 30.0629ZM50.7119 44.1995C48.4956 45.1686 46.1024 45.6674 43.6835 45.6641H38.9978L38.8385 37.8149C39.315 37.7464 39.7979 37.7113 40.2888 37.7113H44.4644C45.0541 37.7113 45.6278 37.6396 46.1777 37.5041L49.1819 42.8432C49.1819 42.8432 49.6728 43.6926 50.7119 44.1995ZM28.1763 20.1641C27.5228 20.1641 26.981 19.6222 26.981 18.9688V16.5941C26.981 15.9407 27.5228 15.3988 28.1763 15.3988C28.8297 15.3988 29.3716 15.9407 29.3716 16.5941V18.9688C29.3556 19.6222 28.8297 20.1641 28.1763 20.1641Z" fill="#094EC7"/>
</svg>
