<svg width="81" height="51" viewBox="0 0 101.25 63.75" fill="none" xmlns="http://www.w3.org/2000/svg">
<rect width="81" height="51" rx="10" fill="#F7F800"/>
<path d="M54.4509 2.867C58.9306 2.867 62.5743 7.03648 62.5585 12.1849V12.8375C62.5585 13.704 62.2147 14.4781 61.6752 14.9911V21.4302C61.6767 22.3258 61.5243 23.2129 61.2267 24.0406C60.9292 24.8684 60.4924 25.6204 59.9413 26.2537C59.3903 26.887 58.7359 27.389 58.0157 27.731C57.2955 28.0729 56.5236 28.2481 55.7443 28.2464H55.5077C55.992 29.4636 56.2396 30.7874 56.2333 32.1258V32.5609C56.2333 33.4274 55.8894 34.2015 55.35 34.7145V41.3168C55.35 42.2119 55.1966 43.0982 54.8985 43.9252C54.6004 44.7522 54.1636 45.5036 53.6128 46.1366C53.0621 46.7695 52.4083 47.2716 51.6887 47.6141C50.9691 47.9567 50.1979 48.133 49.419 48.133H25.2537C23.6807 48.133 22.1722 47.4148 21.0599 46.1366C19.9476 44.8583 19.3228 43.1245 19.3228 41.3168V34.7145C19.0463 34.4528 18.8236 34.124 18.6709 33.7516C18.5181 33.3792 18.4391 32.9726 18.4395 32.5609V32.1258C18.439 29.8075 19.1907 27.5723 20.5476 25.857C21.9046 24.1416 23.7693 23.0693 25.7774 22.8497C25.6913 22.383 25.648 21.9072 25.648 21.4302V14.9911C25.3715 14.7294 25.1489 14.4006 24.9961 14.0282C24.8434 13.6558 24.7644 13.2492 24.7647 12.8375V12.1849C24.7647 7.03648 28.3927 2.867 32.8724 2.867H54.4509ZM47.3369 24.6208H45.0655V28.0289C45.0655 28.754 45.5703 29.3341 46.2012 29.3341C46.8164 29.3341 47.3211 28.754 47.3369 28.0289V24.6208ZM38.4721 24.6208H36.2007V28.0289C36.2007 28.754 36.7054 29.3341 37.3364 29.3341C37.9673 29.3341 38.4721 28.754 38.4721 28.0289V24.6208ZM29.623 24.6208H27.3516V28.0289C27.3516 28.754 27.8564 29.3341 28.4873 29.3341C29.1183 29.3341 29.623 28.754 29.623 28.0289V24.6208ZM48.1256 22.808C49.8567 22.8053 51.5429 23.4406 52.9366 24.6208H55.7443C57.287 24.6208 58.5205 23.2031 58.5205 21.4302V15.6292H28.8028V21.4302C28.8028 21.9233 28.9006 22.391 29.0741 22.808H48.1256ZM22.4775 35.3526V41.3168C22.4775 43.0752 23.7158 44.5073 25.2537 44.5073H49.419C50.957 44.5073 52.1952 43.0752 52.1952 41.3168V35.3526H22.4775ZM53.6622 8.08791V4.67982H51.3908V8.08791C51.3908 8.81303 51.8955 9.39313 52.5265 9.39313C53.1416 9.39313 53.6464 8.81303 53.6622 8.08791ZM44.7973 4.67982H42.5259V8.08791C42.5259 8.81303 43.0307 9.39313 43.6616 9.39313C44.2926 9.39313 44.7973 8.81303 44.7973 8.08791V4.67982ZM35.9483 4.67982H33.6769V8.08791C33.6769 8.81303 34.1816 9.39313 34.8126 9.39313C35.4435 9.39313 35.9483 8.81303 35.9483 8.08791V4.67982Z" fill="#094EC7"/>
</svg>
