<svg width="51" height="29" viewBox="0 0 51 29" fill="none" xmlns="http://www.w3.org/2000/svg">
<g clip-path="url(#clip0_620_462)">
<path d="M47.3846 4.29174C48.3026 3.44752 48.6648 4.18662 49.8055 4.6669C49.8812 3.22125 48.6674 1.3124 47.095 1.43941C46.2325 1.50878 45.6565 2.29538 45.2969 3.00779C44.4645 2.71109 43.5828 2.57661 42.7079 2.50083C41.602 2.40531 40.4966 2.37916 39.411 2.66146C39.1588 1.99173 38.6928 1.39084 38.0706 1.04931C36.617 0.25151 35.4535 1.41913 35.1795 2.87118C38.5553 2.62303 34.3471 4.39421 34.5101 8.94727C29.0451 7.85864 23.427 6.52185 17.8234 7.00106C16.4051 7.12274 14.9832 7.37248 13.6459 7.88585C12.9443 8.15481 12.2728 8.48834 11.6329 8.8875C11.4347 8.33518 10.8483 7.74017 10.6231 7.56673C9.89446 7.00694 9.19492 6.3783 7.24109 7.07364C7.26029 7.00107 7.24109 7.07364 7.25822 7.0016C7.69102 4.68718 5.4663 3.52223 3.50573 4.29228C3.26286 2.71535 2.57474 0.0780755 0.5 0.47831C0.729374 0.641606 1.28101 0.775018 1.23223 1.42553C3.58824 1.91542 3.08123 4.19409 2.96758 4.92785C5.48135 4.39421 6.14093 5.66695 6.13418 7.34473C5.79687 7.47174 5.37341 7.61262 5.13937 7.801C5.13729 7.80207 5.13781 7.801 5.13573 7.80207C3.82747 8.47446 3.46629 10.1138 4.97746 9.83899C6.04337 9.67036 6.6277 8.86242 6.97903 7.93441C6.97903 7.93761 6.97851 7.93975 6.97851 7.94242C8.61059 8.04221 10.8727 9.09776 9.45543 10.7238C8.21671 12.1443 7.49434 13.9726 7.70814 15.8948C7.93804 17.9622 9.24526 19.5295 9.77302 21.481C10.3049 23.4459 9.95362 25.5223 10.5156 27.4877C10.8171 26.9904 11.1654 26.5304 11.5603 26.1072C11.895 26.4882 12.1934 26.897 12.456 27.3346C13.6132 26.1451 13.6807 24.2111 14.1706 22.7009C14.1706 24.0815 16.0377 26.5667 16.3356 27.9488C16.5349 27.4376 16.7341 26.9258 16.9334 26.4146C17.3673 26.9504 17.7653 27.5134 18.127 28.1025C18.127 26.3649 17.9718 24.606 18.277 22.884C20.3901 22.884 22.4939 23.107 24.5998 23.2618C26.7316 23.4187 28.879 23.503 31.0067 23.2415C31.9974 23.2629 32.358 24.1391 32.5293 24.4187C32.7529 25.7998 32.9766 27.1814 33.2008 28.5625C33.8941 27.1361 35.1935 26.6963 35.8879 28.4093C36.4956 26.8442 36.7924 25.1669 37.5298 23.6519C38.6212 24.9342 39.7618 26.4973 39.917 28.2562C40.2366 27.4344 40.6425 26.588 41.26 25.954C41.6918 26.5976 42.0903 27.2625 42.4541 27.9493C42.9232 25.6061 43.0312 23.2095 43.1292 20.8262C43.1645 19.8726 43.205 18.1543 43.26 17.2017C44.3825 18.1996 44.3825 18.1996 45.464 18.3853C47.9866 18.8187 51.1703 16.1659 49.2523 13.5414C51.9897 10.831 49.7001 6.12855 47.3846 4.29174ZM4.67958 9.37899C4.65986 8.95688 4.72265 8.06996 6.09578 7.77752C5.97331 8.45258 5.55193 9.05614 4.67958 9.37899ZM45.5019 16.2491C45.5589 16.2449 45.616 16.2406 45.5008 16.2491C45.3856 16.2572 45.4427 16.2534 45.4998 16.2491C44.945 16.2865 44.8739 15.2278 45.4287 15.1867C45.9845 15.1472 46.0561 16.2081 45.5019 16.2491ZM47.8906 15.7363C47.9482 15.732 48.0058 15.7278 47.8906 15.7363C47.7754 15.7443 47.8319 15.7406 47.8895 15.7363C47.3342 15.7742 47.2626 14.7149 47.8189 14.6738C48.3732 14.6359 48.4458 15.6952 47.8906 15.7363ZM47.8221 11.4143C46.3976 11.4143 46.3976 9.06521 47.8221 9.06521C49.245 9.06521 49.245 11.4143 47.8221 11.4143ZM42.6326 11.4143C41.2081 11.4143 41.2081 9.06521 42.6326 9.06521C44.0556 9.06521 44.0556 11.4143 42.6326 11.4143Z" fill="#F7F800"/>
<path d="M42.8945 10.0957C43.0951 10.0957 43.2578 9.92843 43.2578 9.72212C43.2578 9.51582 43.0951 9.34857 42.8945 9.34857C42.6939 9.34857 42.5312 9.51582 42.5312 9.72212C42.5312 9.92843 42.6939 10.0957 42.8945 10.0957Z" fill="#F7F800"/>
<path d="M48.0429 10.0957C48.2436 10.0957 48.4062 9.92843 48.4062 9.72212C48.4062 9.51582 48.2436 9.34857 48.0429 9.34857C47.8423 9.34857 47.6797 9.51582 47.6797 9.72212C47.6797 9.92843 47.8423 10.0957 48.0429 10.0957Z" fill="#F7F800"/>
</g>
<defs>
<clipPath id="clip0_620_462">
<rect width="50" height="28.125" fill="white" transform="translate(0.5 0.4375)"/>
</clipPath>
</defs>
</svg>
