<svg width="298" height="52" viewBox="0 0 447 78" fill="none" xmlns="http://www.w3.org/2000/svg">
<rect width="298" height="52" rx="10" fill="#094EC7"/>
<path d="M123.584 34H120.008V22.48H116.384V19.912H117.104C118.616 19.912 119.552 19.36 120.32 17.92H123.584V34ZM138.755 34H126.179V31.84C126.179 28.72 128.291 27.424 130.523 26.344L133.307 25.024C134.723 24.352 135.227 23.824 135.227 22.768C135.227 21.616 134.699 20.968 132.563 20.968C130.235 20.968 129.755 21.616 129.755 23.344V23.752H126.155V23.368C126.155 20.248 128.075 17.68 132.851 17.68C137.099 17.68 138.803 19.84 138.803 22.744C138.803 25.528 136.835 26.944 134.747 27.88L132.323 28.936C131.003 29.536 130.019 30.04 130.019 30.808L132.611 30.76H138.755V34ZM145.35 34H140.838V29.752H145.35V34ZM153.629 34.24C148.781 34.24 146.981 32.272 146.981 29.08V28.552H150.509V29.032C150.509 30.496 151.061 30.928 153.629 30.928C155.597 30.928 156.605 30.592 156.605 29.104C156.605 27.52 155.933 27.208 154.373 27.208H150.989V24.28H153.989C155.429 24.28 155.981 23.992 155.981 22.696C155.981 21.424 155.069 20.992 153.389 20.992C151.253 20.992 150.509 21.424 150.509 22.888V23.104H146.981V22.84C146.981 19.648 149.357 17.68 153.485 17.68C157.277 17.68 159.581 19.144 159.581 22.024C159.581 23.92 158.669 25.216 156.557 25.456V25.6C158.861 25.816 160.253 27.208 160.253 29.584C160.253 32.704 157.685 34.24 153.629 34.24ZM174.872 34H162.296V31.84C162.296 28.72 164.408 27.424 166.64 26.344L169.424 25.024C170.84 24.352 171.344 23.824 171.344 22.768C171.344 21.616 170.816 20.968 168.68 20.968C166.352 20.968 165.872 21.616 165.872 23.344V23.752H162.272V23.368C162.272 20.248 164.192 17.68 168.968 17.68C173.216 17.68 174.92 19.84 174.92 22.744C174.92 25.528 172.952 26.944 170.864 27.88L168.44 28.936C167.12 29.536 166.136 30.04 166.136 30.808L168.728 30.76H174.872V34Z" fill="#FFE3F0"/>
<path d="M0 10C0 4.47715 4.47715 0 10 0H59V52H10C4.47715 52 0 47.5228 0 42V10Z" fill="#F7F800"/>
</svg>
