<svg width="91" height="91" viewBox="0 0 91 91" fill="none" xmlns="http://www.w3.org/2000/svg">
<path d="M33.8266 16.2776C37.8974 13.8836 42.4048 12.3256 47.0851 11.6947C51.7654 11.0638 56.5245 11.3728 61.0839 12.6035L67.4539 14.3382C73.3689 15.9591 79.483 14.9638 84.6586 11.6651C85.3127 11.267 85.5117 10.3854 85.0567 9.70289C84.8528 9.38654 84.5316 9.16399 84.1638 9.08403C83.796 9.00407 83.4115 9.07322 83.0946 9.27633C78.6014 12.1485 73.312 13.0016 68.1649 11.6082L61.7949 9.87352C56.7868 8.51023 51.5532 8.18285 46.4142 8.9114C41.2752 9.63995 36.3389 11.4091 31.9071 14.1107L21.9312 20.202C21.5842 20.4011 21.2401 20.6087 20.8989 20.822L6.62327 29.211C5.62796 29.7798 5.40046 31.1163 6.11139 31.9979L8.27264 34.7279C9.38171 36.0929 9.41014 38.0266 8.38639 39.477L5.88389 42.9463C5.40046 43.6004 5.88389 44.5388 6.70858 44.5388H19.8865L14.5289 52.217C14.376 52.4299 14.2851 52.681 14.2662 52.9425C14.2474 53.204 14.3013 53.4655 14.4221 53.6982C14.5428 53.9309 14.7257 54.1256 14.9504 54.2607C15.175 54.3957 15.4327 54.466 15.6948 54.4635C16.1214 54.4635 16.5764 54.2645 16.8608 53.8663L23.373 44.5388H28.4235L24.3398 50.3685C23.3161 51.8473 22.7758 53.5535 22.7758 55.3166V57.3073C22.7758 58.1035 23.4014 58.7291 24.1976 58.7291C24.9939 58.7291 25.6195 58.1035 25.6195 57.3073V55.3166C25.6195 54.1507 25.9892 52.9848 26.6717 52.0179L31.9099 44.5388H36.9547L32.8711 50.3685C31.8473 51.8473 31.307 53.5535 31.307 55.3166V57.3073C31.307 58.1035 31.9326 58.7291 32.7289 58.7291C33.5251 58.7291 34.1508 58.1035 34.1508 57.3073V55.3166C34.1508 54.1507 34.5205 52.9848 35.203 52.0179L40.4411 44.5388H45.486L41.4023 50.3685C40.3786 51.8473 39.8383 53.5535 39.8383 55.3166V57.3073C39.8383 58.1035 40.4639 58.7291 41.2601 58.7291C42.0564 58.7291 42.682 58.1035 42.682 57.3073V55.3166C42.682 54.1507 43.0517 52.9848 43.7342 52.0179L48.9724 44.5388H52.5783C55.2685 44.5388 57.7141 45.6109 59.5085 47.3541H54.4551C52.4361 47.3541 50.6445 48.6338 49.962 50.5391C49.8884 50.7538 49.8667 50.9829 49.8985 51.2076C49.9303 51.4323 50.0149 51.6463 50.1452 51.8321C50.2756 52.0179 50.448 52.1702 50.6484 52.2766C50.8489 52.3831 51.0717 52.4406 51.2986 52.4445C51.8673 52.4445 52.4361 52.1032 52.6351 51.4776C52.7662 51.1005 53.0124 50.7741 53.339 50.5445C53.6655 50.3149 54.056 50.1936 54.4551 50.1979H55.7291C55.6778 50.3092 55.6322 50.4231 55.5926 50.5391C55.5191 50.7538 55.4973 50.9829 55.5291 51.2076C55.561 51.4323 55.6455 51.6463 55.7758 51.8321C55.9062 52.0179 56.0786 52.1702 56.2791 52.2766C56.4795 52.3831 56.7023 52.4406 56.9292 52.4445C57.5264 52.4445 58.0667 52.1032 58.2658 51.4776C58.3968 51.1005 58.643 50.7741 58.9696 50.5445C59.2961 50.3149 59.6866 50.1936 60.0858 50.1979H61.556C62.4049 51.9651 62.7097 53.9447 62.4319 55.8854H54.4551C52.4361 55.8854 50.6445 57.1651 49.962 59.0704C49.8884 59.2851 49.8667 59.5141 49.8985 59.7388C49.9303 59.9636 50.0149 60.1775 50.1452 60.3633C50.2756 60.5491 50.448 60.7015 50.6484 60.8079C50.8489 60.9143 51.0717 60.9718 51.2986 60.9757C51.8673 60.9757 52.4361 60.606 52.6351 60.0088C52.7662 59.6317 53.0124 59.3054 53.339 59.0757C53.6655 58.8461 54.056 58.7249 54.4551 58.7291H55.7291C55.6778 58.8405 55.6322 58.9544 55.5926 59.0704C55.5191 59.2851 55.4973 59.5141 55.5291 59.7388C55.561 59.9636 55.6455 60.1775 55.7758 60.3633C55.9062 60.5491 56.0786 60.7015 56.2791 60.8079C56.4795 60.9143 56.7023 60.9718 56.9292 60.9757C57.5264 60.9757 58.0667 60.606 58.2658 60.0088C58.3968 59.6317 58.643 59.3054 58.9696 59.0757C59.2961 58.8461 59.6866 58.7249 60.0858 58.7291H61.5816C60.9174 60.1324 59.9361 61.362 58.7151 62.3208C56.9663 63.6984 54.8045 64.4468 52.5783 64.4451H45.1276C41.0296 64.4435 37.0212 65.6444 33.5991 67.8989C30.177 70.1533 27.4915 73.3623 25.8755 77.1282L23.4867 82.7304C23.4108 82.9043 23.3796 83.0943 23.3959 83.2833C23.4123 83.4723 23.4756 83.6542 23.5802 83.8125C23.6847 83.9708 23.8272 84.1004 23.9947 84.1895C24.1621 84.2787 24.3492 84.3245 24.5389 84.3229H51.1848C52.3877 84.3229 53.5736 84.2603 54.7481 84.1381C71.4921 82.4034 84.6302 68.5714 85.2842 51.5259C85.6043 43.6668 83.1882 35.94 78.4479 29.6632C73.4422 23.0213 66.1853 18.4337 58.0383 16.7611C55.7827 16.3024 53.4866 16.0718 51.1848 16.0729H37.3926C36.1983 16.0729 35.0067 16.1411 33.8266 16.2776ZM44.6499 41.6951L54.4296 27.7038C56.406 24.8942 56.0931 21.476 54.33 19.073C59.463 19.5849 64.232 21.3338 68.3298 24.0212C69.3412 26.1156 69.7649 28.4454 69.5555 30.7618C69.3462 33.0783 68.5117 35.2944 67.1411 37.1735L61.337 45.1645C58.9673 42.9323 55.8337 41.6911 52.5783 41.6951H44.6499ZM65.3496 53.6417L76.2696 39.3348C77.4725 37.7565 78.1606 36.2863 78.5332 34.9924C81.1224 39.6415 82.4773 44.8764 82.4689 50.1979C82.4728 53.8106 81.8503 57.3966 80.629 60.7966C78.0243 63.131 74.6486 64.4203 71.1508 64.4166H60.6517C62.24 63.1278 63.4958 61.4765 64.3133 59.6015C65.1308 57.7265 65.4862 55.6826 65.3496 53.6417ZM63.7286 78.8657C59.7741 80.595 55.5038 81.4849 51.1877 81.4791H42.827L42.5427 67.4737C43.393 67.3514 44.2546 67.2888 45.1305 67.2888H52.5811C53.6333 67.2888 54.6571 67.1609 55.6381 66.9191L60.9986 76.4457C60.9986 76.4457 61.8745 77.9614 63.7286 78.8657ZM23.518 35.9791C22.352 35.9791 21.3852 35.0123 21.3852 33.8463V29.6091C21.3852 28.4432 22.352 27.4763 23.518 27.4763C24.6839 27.4763 25.6508 28.4432 25.6508 29.6091V33.8463C25.6224 35.0123 24.6839 35.9791 23.518 35.9791Z" fill="#F7F800"/>
</svg>
