<svg width="92" height="91" viewBox="0 0 92 91" fill="none" xmlns="http://www.w3.org/2000/svg">
<path d="M79.3922 50.9486L79.3543 50.7969C72.012 33.2983 58.0785 19.392 40.5656 12.084C39.8182 11.7778 39.0164 11.6265 38.2087 11.6393C37.4011 11.6521 36.6045 11.8287 35.8672 12.1583C35.1298 12.488 34.467 12.964 33.919 13.5573C33.371 14.1506 32.9491 14.8491 32.6789 15.6102L12.5072 71.3098C12.1787 72.2133 12.0723 73.1827 12.1973 74.1359C12.3222 75.0892 12.6748 75.9983 13.2251 76.7866C13.7754 77.575 14.5074 78.2192 15.3592 78.6651C16.2109 79.1109 17.1575 79.3452 18.1189 79.3482C18.8156 79.3489 19.5076 79.2336 20.1664 79.0069L75.9039 58.8352C76.6668 58.5588 77.3659 58.1307 77.9589 57.5768C78.5519 57.0229 79.0266 56.3546 79.3543 55.6123C79.6792 54.8789 79.8502 54.0866 79.8567 53.2844C79.8633 52.4822 79.7052 51.6872 79.3922 50.9486ZM52.9264 62.2477C53.1521 62.4816 53.407 62.6855 53.6847 62.8544L18.8772 75.4541C18.4864 75.5874 18.0659 75.6083 17.6637 75.5144C17.2616 75.4206 16.8938 75.2158 16.6022 74.9233C16.2918 74.6356 16.0752 74.2611 15.9805 73.8486C15.8858 73.4361 15.9175 73.0046 16.0714 72.6104L25.1335 47.5854C25.3024 47.8631 25.5063 48.118 25.7402 48.3437C27.0273 49.6309 28.7731 50.354 30.5935 50.354C32.4138 50.354 34.1596 49.6309 35.4468 48.3437C36.734 47.0565 37.4571 45.3107 37.4571 43.4904C37.4571 41.67 36.734 39.9242 35.4468 38.637C34.6194 37.8062 33.59 37.205 32.4599 36.8926C31.3297 36.5801 30.1377 36.5672 29.001 36.8549L33.1339 25.5558C43.4267 30.2542 52.3335 37.5284 58.9931 46.6754C56.7081 46.794 54.5475 47.7528 52.9264 49.3675C52.0798 50.2127 51.4081 51.2165 50.9498 52.3216C50.4915 53.4267 50.2556 54.6113 50.2556 55.8076C50.2556 57.0039 50.4915 58.1885 50.9498 59.2936C51.4081 60.3987 52.0798 61.4025 52.9264 62.2477ZM75.866 54.0957C75.6211 54.6378 75.1711 55.0605 74.6147 55.2711L69.6097 57.0532C69.1927 56.1811 68.7756 55.3469 68.3585 54.5127C67.9035 53.6027 67.4106 52.6927 66.9177 51.8207C65.7422 49.7352 64.4531 47.7257 63.126 45.8298C55.8709 35.4399 45.9578 27.1899 34.4231 21.9423L36.2431 16.8994C36.3413 16.6206 36.4966 16.3654 36.6989 16.1499C36.9013 15.9345 37.1464 15.7636 37.4185 15.6482C37.6876 15.5097 37.9883 15.4444 38.2906 15.4586C38.6147 15.4702 38.9348 15.5343 39.2385 15.6482C55.812 22.5839 68.9853 35.7708 75.9039 52.3515V52.4273C76.0104 52.6936 76.0619 52.9787 76.0554 53.2654C76.0489 53.5521 75.9844 53.8345 75.866 54.0957Z" fill="#F7F800"/>
<path d="M30.2069 66.5968C32.458 66.5968 34.2829 64.7719 34.2829 62.5207C34.2829 60.2696 32.458 58.4447 30.2069 58.4447C27.9558 58.4447 26.1309 60.2696 26.1309 62.5207C26.1309 64.7719 27.9558 66.5968 30.2069 66.5968Z" fill="#F7F800"/>
</svg>
